<svg width="107" height="106" viewBox="0 0 107 106" fill="none" xmlns="http://www.w3.org/2000/svg">
<path d="M55.48 5.40004C54.33 6.55004 52.47 6.55004 51.32 5.40004C50.17 4.25004 50.17 2.39003 51.32 1.24003C52.47 0.0900329 54.33 0.0900329 55.48 1.24003C56.62 2.38003 56.62 4.25004 55.48 5.40004ZM67.92 13.67C66.77 12.52 64.91 12.52 63.76 13.67C62.61 14.82 62.61 16.68 63.76 17.83C64.91 18.98 66.77 18.98 67.92 17.83C69.06 16.69 69.06 14.82 67.92 13.67ZM80.35 26.11C79.2 24.96 77.34 24.96 76.19 26.11C75.04 27.26 75.04 29.12 76.19 30.27C77.34 31.42 79.2 31.42 80.35 30.27C81.5 29.12 81.5 27.26 80.35 26.11ZM92.79 38.55C91.64 37.4 89.78 37.4 88.63 38.55C87.48 39.7 87.48 41.56 88.63 42.71C89.78 43.86 91.64 43.86 92.79 42.71C93.94 41.56 93.94 39.7 92.79 38.55ZM105.23 50.99C104.08 49.84 102.22 49.84 101.07 50.99C99.92 52.14 99.92 54 101.07 55.15C102.22 56.3 104.08 56.3 105.23 55.15C106.38 54 106.38 52.14 105.23 50.99ZM43.04 13.67C41.89 12.52 40.03 12.52 38.88 13.67C37.73 14.82 37.73 16.68 38.88 17.83C40.03 18.98 41.89 18.98 43.04 17.83C44.19 16.69 44.19 14.82 43.04 13.67ZM55.48 26.11C54.33 24.96 52.47 24.96 51.32 26.11C50.17 27.26 50.17 29.12 51.32 30.27C52.47 31.42 54.33 31.42 55.48 30.27C56.62 29.12 56.62 27.26 55.48 26.11ZM67.92 38.55C66.77 37.4 64.91 37.4 63.76 38.55C62.61 39.7 62.61 41.56 63.76 42.71C64.91 43.86 66.77 43.86 67.92 42.71C69.06 41.56 69.06 39.7 67.92 38.55ZM80.35 50.99C79.2 49.84 77.34 49.84 76.19 50.99C75.04 52.14 75.04 54 76.19 55.15C77.34 56.3 79.2 56.3 80.35 55.15C81.5 54 81.5 52.14 80.35 50.99ZM92.79 63.43C91.64 62.28 89.78 62.28 88.63 63.43C87.48 64.58 87.48 66.44 88.63 67.59C89.78 68.74 91.64 68.74 92.79 67.59C93.94 66.44 93.94 64.58 92.79 63.43ZM30.6 26.11C29.45 24.96 27.59 24.96 26.44 26.11C25.29 27.26 25.29 29.12 26.44 30.27C27.59 31.42 29.45 31.42 30.6 30.27C31.75 29.12 31.75 27.26 30.6 26.11ZM43.04 38.55C41.89 37.4 40.03 37.4 38.88 38.55C37.73 39.7 37.73 41.56 38.88 42.71C40.03 43.86 41.89 43.86 43.04 42.71C44.19 41.56 44.19 39.7 43.04 38.55ZM55.48 50.99C54.33 49.84 52.47 49.84 51.32 50.99C50.17 52.14 50.17 54 51.32 55.15C52.47 56.3 54.33 56.3 55.48 55.15C56.62 54 56.62 52.14 55.48 50.99ZM67.92 63.43C66.77 62.28 64.91 62.28 63.76 63.43C62.61 64.58 62.61 66.44 63.76 67.59C64.91 68.74 66.77 68.74 67.92 67.59C69.06 66.44 69.06 64.58 67.92 63.43ZM80.35 75.87C79.2 74.72 77.34 74.72 76.19 75.87C75.04 77.02 75.04 78.88 76.19 80.03C77.34 81.18 79.2 81.18 80.35 80.03C81.5 78.88 81.5 77.02 80.35 75.87ZM18.16 38.55C17.01 37.4 15.15 37.4 14 38.55C12.85 39.7 12.85 41.56 14 42.71C15.15 43.86 17.01 43.86 18.16 42.71C19.31 41.56 19.31 39.7 18.16 38.55ZM30.6 50.99C29.45 49.84 27.59 49.84 26.44 50.99C25.29 52.14 25.29 54 26.44 55.15C27.59 56.3 29.45 56.3 30.6 55.15C31.75 54 31.75 52.14 30.6 50.99ZM43.04 63.43C41.89 62.28 40.03 62.28 38.88 63.43C37.73 64.58 37.73 66.44 38.88 67.59C40.03 68.74 41.89 68.74 43.04 67.59C44.19 66.44 44.19 64.58 43.04 63.43ZM55.48 75.87C54.33 74.72 52.47 74.72 51.32 75.87C50.17 77.02 50.17 78.88 51.32 80.03C52.47 81.18 54.33 81.18 55.48 80.03C56.62 78.88 56.62 77.02 55.48 75.87ZM67.92 88.31C66.77 87.16 64.91 87.16 63.76 88.31C62.61 89.46 62.61 91.32 63.76 92.47C64.91 93.62 66.77 93.62 67.92 92.47C69.06 91.32 69.06 89.46 67.92 88.31ZM5.72001 50.99C4.57001 49.84 2.71001 49.84 1.56001 50.99C0.41001 52.14 0.41001 54 1.56001 55.15C2.71001 56.3 4.57001 56.3 5.72001 55.15C6.87001 54 6.87001 52.14 5.72001 50.99ZM18.16 63.43C17.01 62.28 15.15 62.28 14 63.43C12.85 64.58 12.85 66.44 14 67.59C15.15 68.74 17.01 68.74 18.16 67.59C19.31 66.44 19.31 64.58 18.16 63.43ZM30.6 75.87C29.45 74.72 27.59 74.72 26.44 75.87C25.29 77.02 25.29 78.88 26.44 80.03C27.59 81.18 29.45 81.18 30.6 80.03C31.75 78.88 31.75 77.02 30.6 75.87ZM43.04 88.31C41.89 87.16 40.03 87.16 38.88 88.31C37.73 89.46 37.73 91.32 38.88 92.47C40.03 93.62 41.89 93.62 43.04 92.47C44.19 91.32 44.19 89.46 43.04 88.31ZM55.48 100.75C54.33 99.6 52.47 99.6 51.32 100.75C50.17 101.9 50.17 103.76 51.32 104.91C52.47 106.06 54.33 106.06 55.48 104.91C56.63 103.76 56.62 101.9 55.48 100.75Z" fill="#808080" fill-opacity="0.6"/>
</svg>
