<svg width="99" height="98" viewBox="0 0 99 98" fill="none" xmlns="http://www.w3.org/2000/svg">
<path d="M30.7798 94.19C32.5898 94.95 34.4298 95.59 36.2998 96.12L96.5498 35.87C96.0198 34 95.3798 32.16 94.6198 30.35L30.7798 94.19Z" fill="#EC5242"/>
<path d="M22.99 90.06C24.53 91.07 26.11 91.97 27.72 92.78L93.21 27.29C92.4 25.67 91.5 24.09 90.49 22.56L22.99 90.06Z" fill="#EC5242"/>
<path d="M16.3198 84.79C17.6198 86.01 18.9698 87.15 20.3598 88.2L88.6298 19.93C87.5798 18.54 86.4398 17.19 85.2198 15.89L16.3198 84.79Z" fill="#EC5242"/>
<path d="M33.9 3.06C27.05 5.39 20.62 9.28001 15.16 14.73C9.69999 20.19 5.81999 26.62 3.48999 33.47L33.9 3.06Z" fill="#EC5242"/>
<path d="M97.4599 58.84C98.0099 56.07 98.3199 53.27 98.3899 50.46L50.8899 97.96C53.6999 97.89 56.5099 97.58 59.2699 97.03L97.4599 58.84Z" fill="#EC5242"/>
<path d="M39.9099 97C42.0899 97.44 44.2799 97.73 46.4899 97.87L98.2999 46.06C98.1599 43.85 97.8699 41.65 97.4299 39.48L39.9099 97Z" fill="#EC5242"/>
<path d="M6.08984 71.15C6.89984 72.77 7.79984 74.35 8.80984 75.88L76.3098 8.38C74.7698 7.37 73.1898 6.47 71.5798 5.66L6.08984 71.15Z" fill="#EC5242"/>
<path d="M1.8399 39.6C1.2899 42.37 0.979912 45.17 0.909912 47.98L48.4099 0.480011C45.5999 0.550011 42.7899 0.860004 40.0299 1.41L1.8399 39.6Z" fill="#EC5242"/>
<path d="M65.3999 95.38C72.2499 93.05 78.6799 89.16 84.1399 83.71C89.5999 78.25 93.4799 71.82 95.8099 64.97L65.3999 95.38Z" fill="#EC5242"/>
<path d="M2.75 62.56C3.28 64.43 3.91999 66.27 4.67999 68.08L68.52 4.24002C66.71 3.48002 64.87 2.84 63 2.31L2.75 62.56Z" fill="#EC5242"/>
<path d="M1 52.38C1.14 54.59 1.43 56.79 1.87 58.96L59.39 1.44C57.21 1 55.02 0.710007 52.81 0.570007L1 52.38Z" fill="#EC5242"/>
<path d="M10.6699 78.51C11.7199 79.9 12.8599 81.25 14.0799 82.55L82.9899 13.64C81.6899 12.42 80.3399 11.28 78.9499 10.23L10.6699 78.51Z" fill="#EC5242"/>
</svg>
