<svg width="73" height="73" viewBox="0 0 73 73" fill="none" xmlns="http://www.w3.org/2000/svg">
<path d="M69.8199 50.79C70.3799 49.45 70.8599 48.08 71.2599 46.69L26.4799 1.91C25.0899 2.3 23.7199 2.78001 22.3799 3.35001L69.8199 50.79Z" fill="#272A31"/>
<path d="M66.7498 56.59C67.4998 55.45 68.1698 54.27 68.7698 53.07L20.0898 4.39001C18.8898 4.99001 17.7098 5.66 16.5698 6.41L66.7498 56.59Z" fill="#272A31"/>
<path d="M62.8399 61.55C63.7499 60.58 64.5899 59.58 65.3699 58.54L14.6199 7.79001C13.5799 8.57001 12.5799 9.42001 11.6099 10.32L62.8399 61.55Z" fill="#272A31"/>
<path d="M2.08984 48.47C3.81984 53.56 6.70984 58.34 10.7698 62.4C14.8298 66.46 19.6098 69.35 24.6998 71.08L2.08984 48.47Z" fill="#272A31"/>
<path d="M43.5498 1.23001C41.4898 0.820011 39.4098 0.590009 37.3198 0.540009L72.6298 35.85C72.5798 33.76 72.3498 31.68 71.9398 29.62L43.5498 1.23001Z" fill="#272A31"/>
<path d="M71.9099 44.01C72.2399 42.39 72.4499 40.76 72.5599 39.12L34.0499 0.610016C32.4099 0.720016 30.7699 0.93001 29.1599 1.26001L71.9099 44.01Z" fill="#272A31"/>
<path d="M52.7 69.14C53.9 68.54 55.08 67.87 56.22 67.12L6.04999 16.95C5.29999 18.09 4.63003 19.27 4.03003 20.47L52.7 69.14Z" fill="#272A31"/>
<path d="M29.2499 72.3C31.3099 72.71 33.3899 72.94 35.4799 72.99L0.169922 37.68C0.219922 39.77 0.449924 41.85 0.859924 43.91L29.2499 72.3Z" fill="#272A31"/>
<path d="M70.6998 25.06C68.9698 19.97 66.0798 15.19 62.0198 11.13C57.9598 7.07 53.1798 4.18001 48.0898 2.45001L70.6998 25.06Z" fill="#272A31"/>
<path d="M46.32 71.63C47.71 71.24 49.08 70.76 50.42 70.19L2.96997 22.74C2.40997 24.08 1.93003 25.45 1.53003 26.84L46.32 71.63Z" fill="#272A31"/>
<path d="M38.75 72.93C40.39 72.82 42.03 72.61 43.64 72.28L0.880005 29.52C0.550005 31.14 0.33998 32.77 0.22998 34.41L38.75 72.93Z" fill="#272A31"/>
<path d="M58.1699 65.74C59.2099 64.96 60.2099 64.11 61.1799 63.21L9.95996 11.99C9.04996 12.96 8.20993 13.96 7.42993 15L58.1699 65.74Z" fill="#272A31"/>
</svg>
