<svg width="208" height="208" viewBox="0 0 208 208" fill="none" xmlns="http://www.w3.org/2000/svg">
<path d="M103.92 207.36C46.8399 207.36 0.399902 160.92 0.399902 103.83C0.399902 46.74 46.8399 0.309998 103.92 0.309998C161 0.309998 207.45 46.75 207.45 103.83C207.45 160.91 161.01 207.36 103.92 207.36ZM103.92 2.31C47.9399 2.31 2.3999 47.85 2.3999 103.83C2.3999 159.81 47.9399 205.36 103.92 205.36C159.9 205.36 205.45 159.82 205.45 103.83C205.45 47.85 159.9 2.31 103.92 2.31Z" fill="#272A31"/>
<path d="M103.92 190.43C56.1698 190.43 17.3298 151.58 17.3298 103.84C17.3298 56.09 56.1798 17.25 103.92 17.25C151.67 17.25 190.51 56.1 190.51 103.84C190.52 151.58 151.67 190.43 103.92 190.43ZM103.92 24.09C59.9498 24.09 24.1798 59.86 24.1798 103.83C24.1798 147.8 59.9498 183.57 103.92 183.57C147.89 183.57 183.66 147.8 183.66 103.83C183.66 59.86 147.89 24.09 103.92 24.09Z" fill="#EC5242"/>
<path d="M103.92 173.49C65.51 173.49 34.26 142.24 34.26 103.83C34.26 65.42 65.51 34.17 103.92 34.17C142.33 34.17 173.58 65.42 173.58 103.83C173.58 142.24 142.33 173.49 103.92 173.49ZM103.92 36.17C66.61 36.17 36.26 66.52 36.26 103.83C36.26 141.14 66.61 171.49 103.92 171.49C141.23 171.49 171.58 141.14 171.58 103.83C171.58 66.52 141.23 36.17 103.92 36.17Z" fill="#272A31"/>
<path d="M103.92 156.56C74.85 156.56 51.1899 132.91 51.1899 103.83C51.1899 74.75 74.84 51.1 103.92 51.1C133 51.1 156.65 74.75 156.65 103.83C156.65 132.91 133 156.56 103.92 156.56ZM103.92 53.11C75.95 53.11 53.1899 75.87 53.1899 103.84C53.1899 131.81 75.95 154.57 103.92 154.57C131.89 154.57 154.65 131.81 154.65 103.84C154.65 75.87 131.9 53.11 103.92 53.11Z" fill="#272A31"/>
<path d="M103.92 139.63C84.1799 139.63 68.1299 123.57 68.1299 103.83C68.1299 84.09 84.1899 68.04 103.92 68.04C123.66 68.04 139.72 84.1 139.72 103.83C139.72 123.57 123.66 139.63 103.92 139.63ZM103.92 70.04C85.2899 70.04 70.1299 85.2 70.1299 103.83C70.1299 122.46 85.2899 137.63 103.92 137.63C122.55 137.63 137.72 122.47 137.72 103.83C137.72 85.19 122.56 70.04 103.92 70.04Z" fill="#272A31"/>
<path d="M103.92 122.7C93.5198 122.7 85.0598 114.24 85.0598 103.84C85.0598 93.44 93.5198 84.98 103.92 84.98C114.32 84.98 122.78 93.44 122.78 103.84C122.79 114.23 114.32 122.7 103.92 122.7ZM103.92 86.97C94.6198 86.97 87.0598 94.53 87.0598 103.83C87.0598 113.13 94.6198 120.69 103.92 120.69C113.22 120.69 120.78 113.13 120.78 103.83C120.79 94.54 113.22 86.97 103.92 86.97Z" fill="#272A31"/>
</svg>
