<svg width="102" height="100" viewBox="0 0 102 100" fill="none" xmlns="http://www.w3.org/2000/svg">
<path d="M9.24005 4.2C8.18005 4.2 7.31006 3.34 7.31006 2.27C7.31006 1.21 8.17005 0.339996 9.24005 0.339996C10.3101 0.339996 11.17 1.2 11.17 2.27C11.17 3.33 10.3001 4.2 9.24005 4.2Z" fill="#272A31"/>
<path d="M27.3802 4.2C26.3202 4.2 25.4502 3.34 25.4502 2.27C25.4502 1.21 26.3102 0.339996 27.3802 0.339996C28.4402 0.339996 29.3102 1.2 29.3102 2.27C29.3002 3.33 28.4402 4.2 27.3802 4.2Z" fill="#272A31"/>
<path d="M45.5101 4.2C44.4501 4.2 43.5801 3.34 43.5801 2.27C43.5801 1.21 44.4401 0.339996 45.5101 0.339996C46.5701 0.339996 47.4401 1.2 47.4401 2.27C47.4401 3.33 46.5801 4.2 45.5101 4.2Z" fill="#272A31"/>
<path d="M63.65 4.2C62.59 4.2 61.72 3.34 61.72 2.27C61.72 1.21 62.58 0.339996 63.65 0.339996C64.71 0.339996 65.58 1.2 65.58 2.27C65.58 3.33 64.71 4.2 63.65 4.2Z" fill="#272A31"/>
<path d="M81.7802 4.2C80.7202 4.2 79.8501 3.34 79.8501 2.27C79.8501 1.21 80.7102 0.339996 81.7802 0.339996C82.8402 0.339996 83.7101 1.2 83.7101 2.27C83.7101 3.33 82.8502 4.2 81.7802 4.2Z" fill="#272A31"/>
<path d="M99.92 4.2C98.86 4.2 97.99 3.34 97.99 2.27C97.99 1.21 98.85 0.339996 99.92 0.339996C100.99 0.339996 101.85 1.2 101.85 2.27C101.85 3.33 100.98 4.2 99.92 4.2Z" fill="#272A31"/>
<path d="M9.24005 20.74C8.18005 20.74 7.31006 19.88 7.31006 18.81C7.31006 17.75 8.17005 16.88 9.24005 16.88C10.3101 16.88 11.17 17.74 11.17 18.81C11.17 19.87 10.3001 20.74 9.24005 20.74Z" fill="#272A31"/>
<path d="M27.3802 20.74C26.3202 20.74 25.4502 19.88 25.4502 18.81C25.4502 17.75 26.3102 16.88 27.3802 16.88C28.4402 16.88 29.3102 17.74 29.3102 18.81C29.3002 19.87 28.4402 20.74 27.3802 20.74Z" fill="#272A31"/>
<path d="M45.5101 20.74C44.4501 20.74 43.5801 19.88 43.5801 18.81C43.5801 17.75 44.4401 16.88 45.5101 16.88C46.5701 16.88 47.4401 17.74 47.4401 18.81C47.4401 19.87 46.5801 20.74 45.5101 20.74Z" fill="#272A31"/>
<path d="M63.65 20.74C62.59 20.74 61.72 19.88 61.72 18.81C61.72 17.75 62.58 16.88 63.65 16.88C64.71 16.88 65.58 17.74 65.58 18.81C65.58 19.87 64.71 20.74 63.65 20.74Z" fill="#272A31"/>
<path d="M81.7802 20.74C80.7202 20.74 79.8501 19.88 79.8501 18.81C79.8501 17.75 80.7102 16.88 81.7802 16.88C82.8402 16.88 83.7101 17.74 83.7101 18.81C83.7101 19.87 82.8502 20.74 81.7802 20.74Z" fill="#272A31"/>
<path d="M99.92 20.74C98.86 20.74 97.99 19.88 97.99 18.81C97.99 17.75 98.85 16.88 99.92 16.88C100.99 16.88 101.85 17.74 101.85 18.81C101.85 19.87 100.98 20.74 99.92 20.74Z" fill="#272A31"/>
<path d="M9.24005 37.27C8.18005 37.27 7.31006 36.41 7.31006 35.34C7.31006 34.28 8.17005 33.41 9.24005 33.41C10.3101 33.41 11.17 34.27 11.17 35.34C11.17 36.41 10.3001 37.27 9.24005 37.27Z" fill="#272A31"/>
<path d="M27.3802 37.27C26.3202 37.27 25.4502 36.41 25.4502 35.34C25.4502 34.28 26.3102 33.41 27.3802 33.41C28.4402 33.41 29.3102 34.27 29.3102 35.34C29.3002 36.41 28.4402 37.27 27.3802 37.27Z" fill="#272A31"/>
<path d="M45.5101 37.27C44.4501 37.27 43.5801 36.41 43.5801 35.34C43.5801 34.28 44.4401 33.41 45.5101 33.41C46.5701 33.41 47.4401 34.27 47.4401 35.34C47.4401 36.41 46.5801 37.27 45.5101 37.27Z" fill="#272A31"/>
<path d="M63.65 37.27C62.59 37.27 61.72 36.41 61.72 35.34C61.72 34.28 62.58 33.41 63.65 33.41C64.71 33.41 65.58 34.27 65.58 35.34C65.58 36.41 64.71 37.27 63.65 37.27Z" fill="#272A31"/>
<path d="M81.7802 37.27C80.7202 37.27 79.8501 36.41 79.8501 35.34C79.8501 34.28 80.7102 33.41 81.7802 33.41C82.8402 33.41 83.7101 34.27 83.7101 35.34C83.7101 36.41 82.8502 37.27 81.7802 37.27Z" fill="#272A31"/>
<path d="M99.92 37.27C98.86 37.27 97.99 36.41 97.99 35.34C97.99 34.28 98.85 33.41 99.92 33.41C100.99 33.41 101.85 34.27 101.85 35.34C101.85 36.41 100.98 37.27 99.92 37.27Z" fill="#272A31"/>
<path d="M9.24005 53.81C8.18005 53.81 7.31006 52.95 7.31006 51.88C7.31006 50.82 8.17005 49.95 9.24005 49.95C10.3101 49.95 11.17 50.81 11.17 51.88C11.17 52.94 10.3001 53.81 9.24005 53.81Z" fill="#272A31"/>
<path d="M27.3802 53.81C26.3202 53.81 25.4502 52.95 25.4502 51.88C25.4502 50.82 26.3102 49.95 27.3802 49.95C28.4402 49.95 29.3102 50.81 29.3102 51.88C29.3002 52.94 28.4402 53.81 27.3802 53.81Z" fill="#272A31"/>
<path d="M45.5101 53.81C44.4501 53.81 43.5801 52.95 43.5801 51.88C43.5801 50.82 44.4401 49.95 45.5101 49.95C46.5701 49.95 47.4401 50.81 47.4401 51.88C47.4401 52.94 46.5801 53.81 45.5101 53.81Z" fill="#272A31"/>
<path d="M63.65 53.81C62.59 53.81 61.72 52.95 61.72 51.88C61.72 50.82 62.58 49.95 63.65 49.95C64.71 49.95 65.58 50.81 65.58 51.88C65.58 52.94 64.71 53.81 63.65 53.81Z" fill="#272A31"/>
<path d="M81.7802 53.81C80.7202 53.81 79.8501 52.95 79.8501 51.88C79.8501 50.82 80.7102 49.95 81.7802 49.95C82.8402 49.95 83.7101 50.81 83.7101 51.88C83.7101 52.94 82.8502 53.81 81.7802 53.81Z" fill="#272A31"/>
<path d="M99.92 53.81C98.86 53.81 97.99 52.95 97.99 51.88C97.99 50.82 98.85 49.95 99.92 49.95C100.99 49.95 101.85 50.81 101.85 51.88C101.85 52.94 100.98 53.81 99.92 53.81Z" fill="#272A31"/>
<path d="M9.24005 70.35C8.18005 70.35 7.31006 69.49 7.31006 68.42C7.31006 67.36 8.17005 66.49 9.24005 66.49C10.3101 66.49 11.17 67.35 11.17 68.42C11.17 69.48 10.3001 70.35 9.24005 70.35Z" fill="#272A31"/>
<path d="M27.3802 70.35C26.3202 70.35 25.4502 69.49 25.4502 68.42C25.4502 67.36 26.3102 66.49 27.3802 66.49C28.4402 66.49 29.3102 67.35 29.3102 68.42C29.3002 69.48 28.4402 70.35 27.3802 70.35Z" fill="#272A31"/>
<path d="M45.5101 70.35C44.4501 70.35 43.5801 69.49 43.5801 68.42C43.5801 67.36 44.4401 66.49 45.5101 66.49C46.5701 66.49 47.4401 67.35 47.4401 68.42C47.4401 69.48 46.5801 70.35 45.5101 70.35Z" fill="#272A31"/>
<path d="M63.65 70.35C62.59 70.35 61.72 69.49 61.72 68.42C61.72 67.36 62.58 66.49 63.65 66.49C64.71 66.49 65.58 67.35 65.58 68.42C65.58 69.48 64.71 70.35 63.65 70.35Z" fill="#272A31"/>
<path d="M81.7802 70.35C80.7202 70.35 79.8501 69.49 79.8501 68.42C79.8501 67.36 80.7102 66.49 81.7802 66.49C82.8402 66.49 83.7101 67.35 83.7101 68.42C83.7101 69.48 82.8502 70.35 81.7802 70.35Z" fill="#272A31"/>
<path d="M99.92 70.35C98.86 70.35 97.99 69.49 97.99 68.42C97.99 67.36 98.85 66.49 99.92 66.49C100.99 66.49 101.85 67.35 101.85 68.42C101.85 69.48 100.98 70.35 99.92 70.35Z" fill="#272A31"/>
<path d="M9.24005 86.88C8.18005 86.88 7.31006 86.02 7.31006 84.95C7.31006 83.89 8.17005 83.02 9.24005 83.02C10.3101 83.02 11.17 83.88 11.17 84.95C11.17 86.02 10.3001 86.88 9.24005 86.88Z" fill="#272A31"/>
<path d="M27.3802 86.88C26.3202 86.88 25.4502 86.02 25.4502 84.95C25.4502 83.89 26.3102 83.02 27.3802 83.02C28.4402 83.02 29.3102 83.88 29.3102 84.95C29.3002 86.02 28.4402 86.88 27.3802 86.88Z" fill="#272A31"/>
<path d="M45.5101 86.88C44.4501 86.88 43.5801 86.02 43.5801 84.95C43.5801 83.89 44.4401 83.02 45.5101 83.02C46.5701 83.02 47.4401 83.88 47.4401 84.95C47.4401 86.02 46.5801 86.88 45.5101 86.88Z" fill="#272A31"/>
<path d="M63.65 86.88C62.59 86.88 61.72 86.02 61.72 84.95C61.72 83.89 62.58 83.02 63.65 83.02C64.71 83.02 65.58 83.88 65.58 84.95C65.58 86.02 64.71 86.88 63.65 86.88Z" fill="#272A31"/>
<path d="M81.7802 86.88C80.7202 86.88 79.8501 86.02 79.8501 84.95C79.8501 83.89 80.7102 83.02 81.7802 83.02C82.8402 83.02 83.7101 83.88 83.7101 84.95C83.7101 86.02 82.8502 86.88 81.7802 86.88Z" fill="#272A31"/>
<path d="M99.92 86.88C98.86 86.88 97.99 86.02 97.99 84.95C97.99 83.89 98.85 83.02 99.92 83.02C100.99 83.02 101.85 83.88 101.85 84.95C101.85 86.02 100.98 86.88 99.92 86.88Z" fill="#272A31"/>
<path d="M85.6301 99.85L0.580078 14.8H85.6301V99.85Z" fill="#EC5242"/>
</svg>
