<svg width="60" height="19" viewBox="0 0 60 19" fill="none" xmlns="http://www.w3.org/2000/svg">
<path d="M28.2099 9.66L35.0399 2.82001L33.0299 0.809998L24.1799 9.66L33.0299 18.51L35.0399 16.49L28.2099 9.66Z" fill="#808080" fill-opacity="0.6"/>
<path d="M40.1399 9.66L46.9699 2.82001L44.9599 0.809998L36.1099 9.66L44.9599 18.51L46.9699 16.49L40.1399 9.66Z" fill="#808080" fill-opacity="0.6"/>
<path d="M52.2099 9.66L59.0499 2.82001L57.0299 0.809998L48.1899 9.66L57.0299 18.51L59.0499 16.49L52.2099 9.66Z" fill="#808080" fill-opacity="0.6"/>
<path d="M4.20993 9.66L11.0399 2.82001L9.02993 0.809998L0.179932 9.66L9.02993 18.51L11.0399 16.49L4.20993 9.66Z" fill="#808080" fill-opacity="0.6"/>
<path d="M16.1399 9.66L22.9699 2.82001L20.9599 0.809998L12.1099 9.66L20.9599 18.51L22.9699 16.49L16.1399 9.66Z" fill="#808080" fill-opacity="0.6"/>
</svg>
