<svg width="258" height="100" viewBox="0 0 258 100" fill="none" xmlns="http://www.w3.org/2000/svg">
<path d="M3.32852 31.9432C5.5046 32.3138 7.56916 30.8516 7.94239 28.6766L7.94278 28.6744L7.94655 28.6538C7.95167 28.6259 7.96093 28.5765 7.97465 28.5072C8.00212 28.3684 8.04738 28.1501 8.11314 27.8637C8.24486 27.2899 8.45751 26.4484 8.77194 25.4294C9.40532 23.3769 10.4284 20.6804 11.9851 18.0202C15.0959 12.7039 19.997 8 28 8C36.3302 8 42.7707 12.9569 50.5057 19.127L50.918 19.456C54.9627 22.6843 59.4082 26.2324 64.5343 28.7288C68.5583 30.6884 73.0017 32 78 32C82.9763 32 87.4026 30.7 91.4125 28.7547C96.5611 26.257 101.023 22.6955 105.082 19.456L105.494 19.127C113.229 12.9569 119.67 8 128 8C136.33 8 142.771 12.9569 150.506 19.127L150.918 19.456C155.015 22.7261 159.523 26.3244 164.734 28.8253C168.705 30.7314 173.084 32 178 32C182.894 32 187.256 30.7427 191.213 28.8507C196.446 26.3488 200.971 22.7372 205.082 19.456L205.494 19.127C213.229 12.9569 219.67 8 228 8C236.065 8 241.363 12.7752 244.86 18.1744C246.6 20.8614 247.8 23.5791 248.566 25.6416C248.946 26.6664 249.213 27.5127 249.381 28.0901C249.466 28.3784 249.525 28.5984 249.562 28.7386C249.58 28.8087 249.592 28.8588 249.599 28.8873L249.604 28.9069L249.605 28.9112L249.606 28.9129L249.606 28.9144C250.11 31.0616 252.258 32.3961 254.407 31.8958C256.559 31.3949 257.897 29.2447 257.396 27.0931L253.5 28C257.396 27.0931 257.396 27.0915 257.395 27.0898L257.394 27.086L257.392 27.0766L257.386 27.0514L257.367 26.975C257.352 26.9127 257.331 26.828 257.303 26.7223C257.248 26.511 257.168 26.2153 257.061 25.8474C256.846 25.1123 256.521 24.0836 256.066 22.8584C255.162 20.4209 253.72 17.1386 251.575 13.8256C247.3 7.22482 239.848 0 228 0C216.634 0 208.138 6.78156 200.918 12.544L200.506 12.873C192.771 19.0431 186.33 24 178 24C169.67 24 163.229 19.0431 155.494 12.873L155.082 12.544C147.862 6.78156 139.366 0 128 0C116.634 0 108.138 6.78155 100.918 12.544L100.506 12.873C92.7707 19.0431 86.3302 24 78 24C69.6699 24 63.2294 19.0431 55.4944 12.873L55.0821 12.544C47.8623 6.78155 39.3657 0 28 0C16.0901 0 8.99127 7.29611 5.0803 13.9798C3.12607 17.3196 1.88285 20.6231 1.12762 23.0706C0.747743 24.3016 0.48552 25.3351 0.315945 26.0738C0.231049 26.4436 0.169057 26.7409 0.126932 26.9537C0.105861 27.0602 0.0897349 27.1456 0.0781773 27.2085L0.0642115 27.2859L0.0597044 27.3116L0.0580543 27.3212L0.0573779 27.3251C0.0570809 27.3268 0.0568001 27.3285 4.00003 28L0.0568 27.3285C-0.314067 29.5063 1.15073 31.5724 3.32852 31.9432Z" fill="#BDBDBD"/>
<path d="M7.94238 62.6767C7.56916 64.8516 5.5046 66.3138 3.32852 65.9432C1.15073 65.5724 -0.314067 63.5063 0.0568 61.3285L4.00003 62C0.0568001 61.3285 0.0570809 61.3268 0.0573779 61.3251L0.0580543 61.3212L0.0597044 61.3116L0.0642115 61.2859L0.0781773 61.2085C0.0897349 61.1456 0.105861 61.0602 0.126932 60.9537C0.169057 60.7409 0.231049 60.4436 0.315945 60.0738C0.48552 59.3351 0.747743 58.3016 1.12762 57.0706C1.88285 54.6231 3.12607 51.3196 5.0803 47.9798C8.99127 41.2961 16.0901 34 28 34C39.3657 34 47.8623 40.7816 55.0821 46.544L55.4944 46.873C63.2294 53.0431 69.6699 58 78 58C86.3302 58 92.7707 53.0431 100.506 46.873L100.918 46.544C108.138 40.7816 116.634 34 128 34C139.366 34 147.862 40.7816 155.082 46.544L155.494 46.873C163.229 53.0431 169.67 58 178 58C186.33 58 192.771 53.0431 200.506 46.873L200.918 46.544C208.138 40.7816 216.634 34 228 34C239.848 34 247.3 41.2248 251.575 47.8256C253.72 51.1386 255.162 54.4209 256.066 56.8584C256.521 58.0836 256.846 59.1123 257.061 59.8474C257.168 60.2153 257.248 60.511 257.303 60.7223C257.331 60.828 257.352 60.9127 257.367 60.975L257.386 61.0514L257.392 61.0766L257.394 61.086L257.395 61.0898C257.396 61.0915 257.396 61.0931 253.5 62L257.396 61.0931C257.897 63.2447 256.559 65.3949 254.407 65.8958C252.258 66.3961 250.11 65.0616 249.606 62.9144L249.606 62.9129L249.605 62.9112L249.604 62.9069L249.599 62.8873C249.592 62.8588 249.58 62.8087 249.562 62.7386C249.525 62.5984 249.466 62.3784 249.381 62.0901C249.213 61.5127 248.946 60.6664 248.566 59.6416C247.8 57.5791 246.6 54.8614 244.86 52.1744C241.363 46.7752 236.065 42 228 42C219.67 42 213.229 46.9569 205.494 53.127L205.082 53.456C200.971 56.7372 196.446 60.3489 191.213 62.8507C187.256 64.7427 182.894 66 178 66C173.084 66 168.705 64.7314 164.734 62.8252C159.523 60.3244 155.015 56.7261 150.918 53.456L150.506 53.127C142.771 46.9569 136.33 42 128 42C119.67 42 113.229 46.9569 105.494 53.127L105.082 53.456C101.023 56.6955 96.5611 60.257 91.4125 62.7547C87.4026 64.7 82.9763 66 78 66C73.0017 66 68.5583 64.6885 64.5343 62.7288C59.4082 60.2324 54.9627 56.6843 50.918 53.456L50.5057 53.127C42.7707 46.9569 36.3302 42 28 42C19.997 42 15.0959 46.7039 11.9851 52.0202C10.4284 54.6804 9.40532 57.3769 8.77194 59.4294C8.45751 60.4484 8.24486 61.2899 8.11314 61.8637C8.04738 62.1501 8.00212 62.3684 7.97465 62.5072C7.96093 62.5765 7.95167 62.6259 7.94655 62.6538L7.94278 62.6744L7.94238 62.6767Z" fill="#BDBDBD"/>
<path d="M7.94278 96.6743L7.9426 96.6754C7.56995 98.851 5.50502 100.314 3.32852 99.9432C1.15073 99.5724 -0.314067 97.5063 0.0568 95.3285L4.00003 96C0.0568001 95.3285 0.0570809 95.3268 0.0573779 95.3251L0.0580543 95.3212L0.0597044 95.3116L0.0642115 95.2859L0.0781773 95.2085C0.0897349 95.1456 0.105861 95.0602 0.126932 94.9537C0.169057 94.7409 0.231049 94.4436 0.315945 94.0738C0.48552 93.3351 0.747743 92.3016 1.12762 91.0706C1.88285 88.6231 3.12607 85.3196 5.0803 81.9798C8.99127 75.2961 16.0901 68 28 68C39.3657 68 47.8623 74.7816 55.0821 80.544L55.4944 80.873C63.2294 87.0431 69.6699 92 78 92C86.3302 92 92.7707 87.0431 100.506 80.873L100.918 80.544C108.138 74.7816 116.634 68 128 68C139.366 68 147.862 74.7816 155.082 80.544L155.494 80.873C163.229 87.0431 169.67 92 178 92C186.33 92 192.771 87.0431 200.506 80.873L200.918 80.544C208.138 74.7816 216.634 68 228 68C239.848 68 247.3 75.2248 251.575 81.8256C253.72 85.1386 255.162 88.4209 256.066 90.8584C256.521 92.0836 256.846 93.1123 257.061 93.8474C257.168 94.2153 257.248 94.511 257.303 94.7223C257.331 94.828 257.352 94.9127 257.367 94.975L257.386 95.0514L257.392 95.0766L257.394 95.086L257.395 95.0898C257.396 95.0915 257.396 95.0931 253.5 96L257.396 95.0931C257.897 97.2447 256.559 99.3949 254.407 99.8958C252.258 100.396 250.11 99.0616 249.606 96.9144L249.606 96.9129L249.605 96.9112L249.604 96.9069L249.599 96.8873C249.596 96.8744 249.592 96.8571 249.586 96.8355C249.58 96.8094 249.572 96.777 249.562 96.7386C249.525 96.5984 249.466 96.3784 249.381 96.0901C249.213 95.5127 248.946 94.6664 248.566 93.6416C247.8 91.5791 246.6 88.8614 244.86 86.1744C241.363 80.7752 236.065 76 228 76C219.67 76 213.229 80.9569 205.494 87.127L205.082 87.456C200.971 90.7372 196.446 94.3489 191.213 96.8507C187.256 98.7427 182.894 100 178 100C173.084 100 168.705 98.7314 164.734 96.8252C159.523 94.3244 155.015 90.7261 150.918 87.456L150.506 87.127C142.771 80.9569 136.33 76 128 76C119.67 76 113.229 80.9569 105.494 87.127L105.082 87.456C101.023 90.6955 96.5611 94.257 91.4125 96.7547C87.4026 98.7 82.9763 100 78 100C73.0017 100 68.5583 98.6885 64.5343 96.7288C59.4082 94.2324 54.9627 90.6843 50.9181 87.4561L50.5057 87.127C42.7707 80.9569 36.3302 76 28 76C19.997 76 15.0959 80.7039 11.9851 86.0202C10.4284 88.6804 9.40532 91.3769 8.77194 93.4294C8.45751 94.4484 8.24486 95.2899 8.11314 95.8637C8.04738 96.1501 8.00212 96.3684 7.97465 96.5072C7.96093 96.5765 7.95167 96.6259 7.94655 96.6538L7.94278 96.6743Z" fill="#BDBDBD"/>
</svg>
