<?xml version="1.0" standalone="no"?>
<!DOCTYPE svg PUBLIC "-//W3C//DTD SVG 20010904//EN"
 "http://www.w3.org/TR/2001/REC-SVG-20010904/DTD/svg10.dtd">
<svg version="1.0" xmlns="http://www.w3.org/2000/svg"
 width="1410.000000pt" height="279.000000pt" viewBox="0 0 1410.000000 279.000000"
 preserveAspectRatio="xMidYMid meet">

<g transform="translate(0.000000,279.000000) scale(0.100000,-0.100000)"
fill="rgba(128, 128, 128, 0.8)" stroke="none">
<path d="M6103 2534 c-82 -39 -207 -74 -265 -74 -48 0 -79 -15 -72 -35 5 -12
25 -15 88 -15 50 0 87 -5 94 -12 18 -18 17 -1833 0 -1845 -7 -4 -49 -10 -93
-13 -71 -4 -80 -7 -80 -25 0 -19 8 -20 310 -20 294 0 310 1 313 19 6 28 -15
36 -94 36 -40 0 -77 5 -87 13 -15 11 -17 90 -19 999 -2 641 -7 990 -13 997 -6
6 -35 -3 -82 -25z"/>
<path d="M6783 2534 c-82 -39 -207 -74 -265 -74 -48 0 -79 -15 -72 -35 5 -12
25 -15 88 -15 50 0 87 -5 94 -12 18 -18 17 -1833 0 -1845 -7 -4 -49 -10 -93
-13 -71 -4 -80 -7 -80 -25 0 -19 8 -19 310 -20 295 0 310 1 313 19 6 28 -15
36 -93 36 -38 0 -77 5 -85 10 -13 8 -16 133 -20 992 -3 629 -9 989 -15 1000
-9 14 -17 13 -82 -18z"/>
<path d="M3727 2534 c-338 -61 -611 -331 -703 -696 -32 -126 -44 -384 -25
-520 59 -405 343 -731 726 -829 119 -31 354 -33 455 -5 87 24 175 66 248 120
70 52 66 54 122 -53 25 -47 41 -66 55 -66 19 0 20 9 20 355 0 348 0 355 -20
355 -17 0 -24 -17 -51 -125 -38 -149 -52 -189 -100 -281 -87 -165 -244 -265
-434 -276 -321 -19 -562 194 -661 583 -55 220 -61 543 -13 774 57 277 197 503
358 580 153 72 372 63 517 -22 131 -77 211 -215 258 -444 21 -100 36 -129 63
-119 12 5 16 41 21 213 6 189 14 281 33 400 7 42 6 44 -16 40 -16 -2 -34 -20
-55 -56 -17 -29 -37 -57 -44 -62 -19 -11 -51 0 -151 52 -147 75 -247 98 -420
97 -58 0 -140 -7 -183 -15z"/>
<path d="M143 2514 c-9 -24 11 -31 109 -36 49 -3 95 -11 101 -17 17 -17 17
-1865 1 -1881 -10 -10 -49 -18 -182 -36 -25 -4 -32 -10 -30 -22 3 -15 38 -18
393 -24 215 -3 557 -8 762 -10 l371 -4 7 111 c3 60 5 182 3 270 l-3 160 -24 3
c-29 4 -41 -12 -41 -56 0 -54 -30 -184 -52 -227 -71 -141 -176 -172 -615 -182
l-283 -6 0 904 c0 498 5 921 9 943 5 21 14 43 20 49 5 5 51 13 102 18 93 7
119 20 97 46 -8 10 -90 13 -375 13 -324 0 -364 -2 -370 -16z"/>
<path d="M10681 2457 c-63 -32 -86 -129 -46 -191 34 -52 112 -70 180 -42 39
17 53 39 61 98 9 62 -15 115 -60 133 -43 18 -103 19 -135 2z"/>
<path d="M9979 2008 c-8 -7 -27 -29 -41 -48 -70 -96 -169 -159 -288 -184 -53
-10 -65 -16 -65 -32 0 -17 9 -19 90 -22 70 -2 93 -6 103 -19 9 -13 12 -134 12
-524 0 -538 4 -588 46 -638 52 -63 206 -96 326 -72 85 18 169 64 227 126 47
50 66 95 40 95 -6 0 -34 -21 -63 -46 -91 -83 -177 -111 -251 -80 -76 32 -84
99 -85 707 l0 446 153 5 c160 5 197 14 197 49 0 19 -4 20 -32 15 -18 -4 -92
-9 -163 -12 -106 -5 -133 -4 -142 8 -8 8 -13 58 -15 123 -2 89 -6 110 -18 113
-9 1 -22 -3 -31 -10z"/>
<path d="M5128 1847 c-97 -37 -149 -82 -199 -177 -23 -44 -24 -53 -27 -302
l-3 -258 27 -60 c66 -147 226 -226 377 -187 33 9 62 18 65 22 11 11 -22 59
-57 82 -24 16 -49 23 -83 23 -87 0 -166 59 -188 140 -15 56 -12 390 5 452 41
158 252 193 342 56 l28 -42 2 -228 2 -228 50 -50 c50 -50 50 -50 63 -28 14 27
31 401 22 493 -12 119 -81 222 -181 271 -66 33 -185 43 -245 21z"/>
<path d="M2108 1796 c-172 -40 -285 -157 -296 -308 -4 -59 -2 -72 22 -112 43
-73 142 -97 213 -51 46 30 58 116 24 172 -19 31 -26 34 -85 48 -27 6 -28 8
-22 48 15 91 103 157 220 165 64 3 77 1 126 -25 80 -42 107 -100 120 -253 5
-63 10 -151 10 -196 l0 -81 -144 -35 c-173 -43 -273 -90 -360 -169 -106 -98
-150 -233 -115 -356 19 -71 98 -146 175 -169 154 -44 324 18 412 152 l30 44
12 -50 c22 -92 91 -140 200 -140 124 0 300 86 300 146 0 30 -21 31 -46 3 -26
-30 -92 -59 -135 -59 -34 0 -60 18 -85 60 -5 8 -12 226 -15 485 -4 340 -9 481
-18 510 -20 63 -96 129 -178 155 -85 28 -279 36 -365 16z m330 -846 c-5 -198
-5 -200 -33 -242 -71 -109 -165 -144 -261 -98 -110 54 -143 220 -69 345 43 75
107 117 250 166 129 45 119 61 113 -171z"/>
<path d="M7675 1800 c-116 -24 -198 -73 -289 -171 -114 -123 -172 -269 -183
-459 -8 -145 12 -246 73 -369 112 -228 329 -354 578 -338 101 6 182 34 252 87
81 61 196 235 181 274 -10 26 -37 19 -55 -15 -35 -63 -88 -140 -121 -174 -47
-51 -102 -75 -180 -82 -170 -14 -304 60 -383 214 -60 115 -73 183 -73 390 0
100 3 185 7 189 4 4 162 9 350 11 189 2 367 6 397 9 l54 6 -6 54 c-13 125
-117 267 -239 326 -106 52 -251 71 -363 48z m182 -52 c92 -23 153 -120 171
-268 l8 -70 -274 0 -274 0 7 33 c26 119 86 233 146 275 58 40 134 51 216 30z"/>
<path d="M8970 1803 c-168 -28 -338 -151 -426 -309 -65 -116 -86 -206 -88
-369 -1 -153 9 -210 54 -311 36 -81 68 -127 136 -195 93 -95 206 -145 351
-156 159 -12 279 33 389 145 69 72 100 121 91 146 -12 30 -36 16 -93 -55 -62
-78 -122 -122 -198 -144 -202 -60 -377 69 -440 325 -43 172 -41 442 2 585 56
182 160 281 306 292 112 9 215 -36 232 -102 4 -18 -1 -52 -15 -95 -19 -58 -21
-74 -11 -109 14 -55 48 -76 120 -76 95 0 130 37 130 136 0 61 -26 116 -82 170
-48 46 -160 102 -236 118 -51 11 -170 13 -222 4z"/>
<path d="M10805 1779 c-76 -36 -160 -58 -252 -66 -81 -7 -99 -14 -90 -37 5
-13 22 -16 86 -16 70 0 82 -3 91 -20 12 -22 10 -1063 -2 -1075 -3 -4 -35 -9
-70 -11 -97 -8 -110 -12 -106 -35 3 -20 9 -21 311 -21 316 -1 346 3 317 37 -8
10 -30 15 -64 15 -41 0 -119 14 -128 23 -1 1 -5 275 -8 609 -3 385 -9 610 -15
616 -6 6 -33 -1 -70 -19z"/>
<path d="M11685 1795 c-78 -17 -126 -38 -196 -86 -117 -79 -216 -225 -256
-379 -22 -83 -24 -301 -4 -380 55 -218 219 -401 416 -463 100 -32 282 -31 375
2 192 67 350 254 395 466 21 102 19 275 -4 367 -89 346 -397 546 -726 473z
m252 -56 c77 -29 125 -81 162 -178 51 -132 64 -217 64 -416 1 -217 -19 -332
-81 -459 -68 -138 -113 -171 -237 -171 -95 0 -147 21 -213 87 -102 101 -152
274 -152 528 1 232 35 386 108 491 91 129 210 169 349 118z"/>
<path d="M12941 1780 c-55 -37 -151 -68 -256 -82 -122 -16 -127 -17 -123 -36
3 -14 19 -18 95 -22 56 -3 97 -10 105 -18 10 -10 13 -122 13 -538 0 -456 -2
-526 -15 -534 -8 -5 -42 -10 -76 -10 -62 0 -103 -18 -90 -38 5 -9 91 -12 307
-12 292 0 299 0 299 20 0 18 -7 20 -59 20 -33 0 -71 4 -85 10 l-26 10 0 497
c0 488 1 499 21 533 26 43 71 84 124 113 31 16 58 21 120 21 96 1 141 -21 180
-89 37 -61 44 -175 45 -651 0 -322 -3 -404 -14 -419 -11 -15 -30 -19 -100 -23
-73 -4 -86 -7 -84 -21 3 -14 35 -16 297 -19 295 -2 327 1 315 33 -4 8 -30 14
-79 17 -41 2 -77 7 -82 11 -4 5 -10 225 -13 490 -6 557 -8 569 -88 658 -67 75
-149 109 -264 109 -131 0 -237 -42 -333 -132 l-64 -60 -3 93 c-2 51 -7 94 -13
95 -5 2 -30 -10 -54 -26z"/>
<path d="M5108 1144 c-37 -16 -37 -16 -23 -44 21 -42 67 -70 112 -70 88 0 171
-49 199 -117 21 -49 20 -450 -1 -501 -21 -49 -52 -81 -100 -103 -92 -42 -201
-4 -245 86 -18 37 -20 62 -20 259 l0 217 -51 50 c-28 27 -54 47 -59 44 -22
-14 -31 -125 -28 -342 3 -213 4 -231 26 -274 58 -119 168 -192 290 -192 103
-1 165 24 238 97 94 94 99 116 99 416 l0 245 -28 57 c-35 71 -119 150 -183
172 -60 20 -177 20 -226 0z"/>
</g>
</svg>
