<svg width="140" height="29" viewBox="0 0 140 29" fill="rgba(128, 128, 128, 0.8)" xmlns="http://www.w3.org/2000/svg">
<path d="M44.1619 8.62714V17.9016C44.1696 18.8601 43.9892 19.8108 43.6309 20.6999C43.3238 21.4896 42.802 22.1778 42.1245 22.6867C41.4758 23.1716 40.6863 23.4069 39.7121 23.4069C38.7644 23.4069 37.9936 23.1727 37.3581 22.69C36.6897 22.174 36.174 21.4861 35.866 20.6999C35.5097 19.8225 35.3293 18.8837 35.335 17.9368V8.62714H30.3662V18.3029C30.3662 20.1226 30.7324 21.7972 31.4537 23.2794C32.1636 24.7567 33.2668 26.0098 34.6423 26.9012C36.0354 27.8083 37.7407 28.2679 39.711 28.2679C41.7023 28.2679 43.423 27.8149 44.8271 26.9232C46.2162 26.0463 47.3303 24.7961 48.0421 23.3157C48.7634 21.8324 49.1296 20.1578 49.1296 18.3392V8.62714H44.1619Z" fill="rgba(128, 128, 128, 0.8)"/>
<path d="M83.0106 13.0746C82.1272 11.5831 80.8672 10.35 79.3568 9.499C77.8263 8.63038 76.0847 8.19055 74.1781 8.19055C72.2715 8.19055 70.5233 8.64466 68.9927 9.53967C67.4841 10.4139 66.2276 11.6639 65.3456 13.1681C64.449 14.6895 63.9824 16.4259 63.9954 18.1918C63.9773 19.9509 64.4068 21.6856 65.2434 23.2331C66.0497 24.7254 67.228 25.984 68.664 26.8868C70.1154 27.8027 71.7866 28.2667 73.6327 28.2667C75.3051 28.2667 76.8015 27.872 78.0825 27.0936C78.6214 26.766 79.1222 26.3795 79.5756 25.9413V27.8247H84.3619V18.1874C84.3619 16.305 83.9067 14.5832 83.0106 13.0746ZM76.8532 22.7746C76.0429 23.2483 75.1188 23.4919 74.1803 23.4794C73.2488 23.4938 72.3314 23.2507 71.5293 22.7768C70.7514 22.3081 70.1076 21.6464 69.6602 20.856C69.2075 20.0517 68.9697 19.1444 68.9697 18.2215C68.9697 17.2986 69.2075 16.3913 69.6602 15.587C70.1162 14.7974 70.7625 14.1344 71.5403 13.6585C72.3339 13.1735 73.2493 12.9248 74.1792 12.9416C75.1178 12.9291 76.0414 13.1781 76.8466 13.6607C78.0226 14.3919 78.8724 15.5472 79.2203 16.8875C79.5682 18.2278 79.3876 19.6506 78.7158 20.8614C78.2754 21.6536 77.6317 22.314 76.851 22.7746H76.8532Z" fill="rgba(128, 128, 128, 0.8)"/>
<path d="M62.9991 8.6272H57.1518H52.1831V13.5959V27.8293H57.1518V13.5959H62.8858L62.9991 8.6272Z" fill="rgba(128, 128, 128, 0.8)"/>
<path d="M24.0035 23.6246C24.8688 22.591 25.5677 21.4287 26.0749 20.1798C26.7474 18.5071 27.0862 16.7191 27.0722 14.9164C27.0859 13.1357 26.7466 11.3699 26.0739 9.72112C25.4235 8.14868 24.4705 6.71935 23.269 5.51435C22.0687 4.31659 20.6505 3.3593 19.0908 2.69406C17.075 1.8238 14.874 1.47032 12.6871 1.66568C10.5002 1.86103 8.39661 2.59904 6.56701 3.8128C4.73741 5.02657 3.23962 6.67772 2.2094 8.61661C1.17918 10.5555 0.649102 12.7208 0.667196 14.9164C0.652858 16.7224 0.998612 18.5132 1.68425 20.1842C2.61411 22.4401 4.15794 24.39 6.14041 25.8125C8.12287 27.235 10.4645 28.0731 12.8994 28.2316V28.2668H28.1278V23.6246H24.0035ZM8.19342 20.923C7.45603 20.1472 6.87285 19.2383 6.47488 18.2446C6.05385 17.186 5.84248 16.0556 5.85253 14.9164C5.8311 12.7081 6.67076 10.5784 8.19342 8.97895C8.91954 8.22136 9.79084 7.6178 10.7553 7.2043C11.7509 6.77932 12.823 6.56302 13.9054 6.56878C14.9748 6.56014 16.0341 6.7759 17.0149 7.2021C18.9638 8.06301 20.4961 9.65572 21.281 11.6365C21.6905 12.6803 21.8962 13.7929 21.8869 14.9142C21.8967 16.0538 21.6908 17.1849 21.2799 18.2479C20.8917 19.2423 20.3098 20.1498 19.568 20.9175C18.8325 21.6761 17.9589 22.287 16.994 22.7175C16.0224 23.1514 14.9695 23.3733 13.9054 23.3684C12.8231 23.3742 11.7516 23.152 10.7608 22.7164C9.79492 22.2941 8.9223 21.6846 8.19342 20.923Z" fill="rgba(128, 128, 128, 0.8)"/>
<path d="M102.258 9.50348C100.763 8.63266 99.0247 8.19063 97.0906 8.19063C95.5937 8.17913 94.1191 8.55366 92.8091 9.27807C92.4334 9.4861 92.0729 9.72051 91.7304 9.97956V0.977783L86.7617 2.30929V18.2656C86.7405 20.0301 87.1938 21.7678 88.0743 23.2971C88.9548 24.8263 90.2301 26.0909 91.7667 26.9584C93.2962 27.8259 95.0378 28.2668 96.9444 28.2668C98.8509 28.2668 100.601 27.8061 102.134 26.8968C103.635 26.0182 104.884 24.7688 105.763 23.2684C106.649 21.7508 107.109 20.0219 107.094 18.2645C107.094 16.3326 106.66 14.5899 105.803 13.0846C104.962 11.5959 103.738 10.3594 102.258 9.50348ZM101.448 20.8769C101.002 21.6648 100.363 22.3262 99.5909 22.7989C98.7885 23.2684 97.8757 23.5159 96.946 23.5159C96.0164 23.5159 95.1035 23.2684 94.3011 22.7989C93.5236 22.3229 92.8776 21.6599 92.422 20.8703C91.9687 20.0663 91.7304 19.1589 91.7304 18.2359C91.7304 17.3128 91.9687 16.4054 92.422 15.6014C92.8691 14.8108 93.513 14.1491 94.2912 13.6806C94.8832 13.3256 95.5406 13.0933 96.2241 12.9976C96.9077 12.9018 97.6036 12.9445 98.2704 13.123C98.9371 13.3016 99.5612 13.6125 100.105 14.0371C100.65 14.4618 101.103 14.9915 101.438 15.5948C101.881 16.4038 102.114 17.3113 102.114 18.2337C102.114 19.1561 101.881 20.0636 101.438 20.8725L101.448 20.8769Z" fill="rgba(128, 128, 128, 0.8)"/>
<path d="M109.031 2.32249V27.8292H114V0.990967L109.031 2.32249Z" fill="rgba(128, 128, 128, 0.8)"/>
<path d="M135.531 14.6931C135.366 14.2034 135.163 13.7277 134.922 13.2703C134.169 11.8386 133.038 10.6402 131.652 9.80464C130.252 8.95361 128.574 8.52258 126.657 8.52258C124.741 8.52258 123.029 8.97889 121.566 9.8794C120.122 10.7651 118.944 12.0254 118.158 13.5265C117.349 15.067 116.933 16.7838 116.948 18.5238C116.948 20.4579 117.396 22.2083 118.278 23.7257C119.146 25.2306 120.403 26.4741 121.917 27.3255C123.444 28.1941 125.187 28.634 127.095 28.634C128.956 28.634 130.651 28.1941 132.133 27.3409C133.615 26.4877 134.805 25.2067 135.639 23.5651L135.947 22.9582L131.989 20.9263L131.67 21.5068C131.245 22.3184 130.587 22.984 129.78 23.4178C128.942 23.8557 128.007 24.0783 127.062 24.0654C125.962 24.0654 124.997 23.8026 124.192 23.2826C123.64 22.9288 123.162 22.471 122.785 21.9345L129.162 20.2248L132.733 19.2682L135.342 18.5689L136.08 18.3721V18.0873C136.084 16.9335 135.898 15.7868 135.53 14.6931H135.531ZM124.303 13.6639C125.016 13.2957 125.81 13.1113 126.612 13.1274C127.406 13.113 128.192 13.2871 128.906 13.6354C129.546 13.956 130.083 14.4516 130.454 15.0647C130.622 15.3415 130.758 15.6367 130.858 15.9444L121.942 18.3336C121.888 17.7142 121.951 17.0902 122.128 16.4941C122.194 16.2754 122.273 16.0606 122.364 15.8509L122.389 15.7893C122.489 15.5622 122.605 15.3418 122.734 15.1296C123.115 14.5086 123.658 14.0022 124.303 13.6639Z" fill="rgba(128, 128, 128, 0.8)"/>
<path d="M138.115 8.84922C137.898 8.85132 137.684 8.79349 137.498 8.68209C137.316 8.57309 137.164 8.41901 137.058 8.23461C136.951 8.04378 136.895 7.8285 136.895 7.60952C136.895 7.39055 136.951 7.17526 137.058 6.98444C137.164 6.79973 137.316 6.64525 137.498 6.53582C137.685 6.42528 137.898 6.3679 138.115 6.36982C138.331 6.36745 138.544 6.42489 138.73 6.53582C138.912 6.64598 139.063 6.80028 139.169 6.98444C139.277 7.17526 139.333 7.39055 139.333 7.60952C139.333 7.8285 139.277 8.04378 139.169 8.23461C139.063 8.41844 138.912 8.57236 138.73 8.68209C138.544 8.79384 138.331 8.85172 138.115 8.84922ZM138.115 8.73379C138.306 8.73567 138.493 8.68384 138.656 8.58425C138.822 8.48196 138.959 8.33842 139.054 8.16755C139.149 7.99668 139.197 7.80426 139.196 7.60896C139.199 7.41216 139.149 7.21813 139.052 7.04712C138.958 6.88244 138.823 6.74433 138.661 6.64578C138.497 6.54725 138.309 6.49524 138.117 6.49524C137.925 6.49524 137.736 6.54725 137.572 6.64578C137.408 6.74382 137.272 6.88194 137.176 7.04712C137.077 7.21781 137.027 7.41185 137.029 7.60896C137.026 7.80788 137.076 8.00393 137.174 8.17743C137.266 8.34487 137.401 8.48515 137.564 8.58425C137.73 8.6847 137.921 8.73653 138.115 8.73379ZM137.848 8.25879H137.722V6.98114H138.115C138.233 6.97412 138.349 7.00792 138.445 7.07681C138.485 7.10945 138.516 7.15089 138.537 7.19785C138.558 7.2448 138.567 7.29598 138.565 7.34728C138.567 7.39741 138.557 7.44732 138.537 7.49323C138.517 7.53915 138.486 7.57986 138.448 7.61226C138.35 7.68575 138.229 7.72165 138.106 7.71343V7.64745C138.155 7.64181 138.204 7.64623 138.25 7.66042C138.297 7.67461 138.34 7.69827 138.377 7.72992C138.438 7.80339 138.487 7.88617 138.522 7.97511L138.653 8.25879H138.511L138.401 8.0136C138.369 7.93093 138.32 7.85597 138.257 7.7937C138.197 7.74848 138.122 7.72625 138.047 7.73102H137.773V7.62106H138.062C138.156 7.62506 138.248 7.60338 138.331 7.55838C138.364 7.53753 138.391 7.50806 138.409 7.47305C138.428 7.43803 138.436 7.39878 138.434 7.35939C138.434 7.18127 138.328 7.09219 138.117 7.09219H137.85L137.848 8.25879Z" fill="black"/>
</svg>
