<?xml version="1.0" encoding="UTF-8"?>
<svg width="246px" height="228px" viewBox="0 0 246 228" version="1.1" xmlns="http://www.w3.org/2000/svg" xmlns:xlink="http://www.w3.org/1999/xlink">
    <!-- Generator: Sketch 58 (84663) - https://sketch.com -->
    <title>Group 10</title>
    <desc>Created with Sketch.</desc>
    <g id="Symbols" stroke="none" stroke-width="1" fill="none" fill-rule="evenodd">
        <g id="Group-10" fill="rgba(128, 128, 128, 0.8)">
            <g id="W&amp;N-LOGO-Black-White-Small" transform="translate(4.568600, 127.739900)">
                <path d="M234.2084,98.9371 L232.2274,98.9371 L206.7154,70.3461 L206.7154,91.5251 C206.7154,95.5441 207.9164,96.6921 212.0884,97.3691 L212.0884,98.9371 L198.8364,98.9371 L198.8364,97.3691 C202.6464,96.7461 203.6364,94.7111 203.6364,91.3191 L203.6364,67.5821 C200.8224,64.7131 200.2444,64.2931 198.7874,63.9831 L198.7874,62.3651 L210.1074,62.3651 L231.1334,86.3631 L231.1334,70.9741 C231.1334,66.5421 230.3984,64.8171 226.5404,63.9831 L226.5404,62.3651 L239.5314,62.3651 L239.5314,63.9831 C235.3554,64.2431 234.2084,66.6941 234.2084,69.9791 L234.2084,98.9371 Z M178.2814,69.7191 C172.3354,69.7191 168.8934,74.3121 168.8934,83.8081 C168.8934,90.3821 171.4474,97.3191 178.2814,97.3191 C183.3444,97.3191 187.7234,92.8831 187.7234,83.7541 C187.7234,75.6171 184.9624,69.7191 178.2814,69.7191 L178.2814,69.7191 Z M178.2814,99.7171 C168.5254,99.7171 161.5394,92.9911 161.5394,83.5481 C161.5394,74.1021 168.5254,67.3221 178.2814,67.3221 C188.0904,67.3221 195.1354,74.1021 195.1354,83.5481 C195.1354,92.9911 188.0904,99.7171 178.2814,99.7171 L178.2814,99.7171 Z M118.9134,46.0891 C120.1684,45.6721 121.5214,44.5211 121.5214,43.4271 C121.5214,41.2361 120.3244,39.8781 118.4424,39.8781 C117.1384,39.8781 116.1484,40.7651 116.1484,42.0161 C116.1484,43.3771 116.8784,44.1581 118.9134,46.0891 L118.9134,46.0891 Z M118.5494,57.5121 C119.8004,57.5121 121.0014,57.3061 122.1484,56.3651 C120.4774,54.3311 117.9764,50.7861 115.8354,48.9081 C114.4274,49.8981 113.4374,51.0951 113.4374,52.5561 C113.4374,55.6881 115.5214,57.5121 118.5494,57.5121 L118.5494,57.5121 Z M142.3364,49.6881 L188.5074,49.6881 L188.5074,47.3431 L142.3364,47.3431 L142.3364,49.6881 Z M52.9714,49.6881 L99.1414,49.6881 L99.1414,47.2371 L52.9714,47.2371 L52.9714,49.6881 Z M212.7694,17.5521 C219.6034,18.0191 222.9914,16.1951 222.9914,10.2481 C222.9914,6.2821 220.1234,3.6251 215.2204,3.6251 L212.7694,3.6251 L212.7694,17.5521 Z M74.3604,26.8371 C74.3604,29.5491 75.0414,30.3331 78.2764,31.1171 L78.2764,32.5781 L63.6674,32.5781 L63.6674,31.1171 C67.4234,30.1761 67.5804,29.1321 67.5804,26.1071 L67.5804,6.8601 C67.5804,4.0901 66.8494,3.3111 63.6674,2.5271 L63.6674,1.1201 L78.2764,1.1201 L78.2764,2.5271 C74.5704,3.3601 74.3604,4.5111 74.3604,7.4831 L74.3604,26.8371 Z M135.1394,98.9371 L135.1394,97.5261 C138.3754,96.9031 138.9984,95.8581 138.9984,92.8831 L138.9984,70.3461 L136.4434,70.3461 C132.7374,70.3461 130.6534,71.9111 129.5564,75.4061 L128.1484,75.4061 L128.4624,67.4781 L129.3994,67.4781 C129.7664,67.6851 130.2864,67.8411 130.8604,67.9491 C131.4344,68.0521 132.0074,68.1061 132.4784,68.1061 L152.3574,68.1061 C153.3474,68.1061 154.7004,67.9491 155.4354,67.4781 L156.3724,67.4781 L156.6864,75.4061 L155.2784,75.4061 C154.2344,71.9111 152.0924,70.3461 148.3914,70.3461 L145.8324,70.3461 L145.8324,92.9371 C145.8324,95.9611 146.7194,97.0051 149.5914,97.5261 L149.5914,98.9371 L135.1394,98.9371 Z M149.9014,8.2131 L148.2874,8.2131 C147.0864,4.6651 144.2184,2.2671 141.0324,2.2671 C138.2684,2.2671 136.3904,3.6741 136.3904,6.0221 C136.3904,7.1691 136.8604,8.2671 137.8014,9.2041 C139.3654,10.7681 146.1994,14.2671 148.1304,16.1451 C150.4254,18.4401 151.6764,20.8911 151.6764,23.5521 C151.6764,30.3861 145.2584,32.5241 141.4534,32.5241 C137.7484,32.5241 135.8704,31.3241 134.3024,31.3241 C133.6254,31.3241 133.0024,31.6911 132.6884,32.3141 L131.1734,32.3141 L131.1734,23.0291 L132.7374,23.0291 C133.6794,27.6221 136.1844,30.2801 140.6164,30.2801 C143.9544,30.2801 145.8324,28.9751 145.8324,26.4201 C145.8324,25.4301 145.4154,24.0731 144.2684,22.8721 C141.8704,20.5241 136.9144,18.2291 134.3564,15.6741 C132.4784,13.7971 131.4874,11.5521 131.4874,9.1011 C131.4874,3.7771 135.6064,0.1251 141.2964,0.1251 C142.4444,0.1251 143.5374,0.3351 144.4794,0.5451 C145.4154,0.7521 146.1994,0.9621 147.0864,0.9621 C147.5574,0.9621 148.1304,0.6991 148.7044,0.1251 L149.9014,0.1251 L149.9014,8.2131 Z M131.5414,47.5991 C129.1934,48.2271 128.5654,50.0021 126.2174,54.1251 C128.1484,56.3151 129.0364,57.1991 130.8114,57.1991 C131.4344,57.1991 132.0074,56.9381 132.5814,56.4181 L133.6794,57.4091 C132.4784,59.2871 130.7034,60.2271 128.4094,60.2271 C126.4284,60.2271 125.1244,59.6001 123.2424,57.7221 C120.8984,59.4441 118.6534,60.2271 116.0444,60.2271 C111.9224,60.2271 109.1074,57.9831 109.1074,54.6941 C109.1074,51.9281 111.2994,49.2711 114.7944,47.6531 C112.9664,45.6191 111.8734,44.6281 111.8734,43.0641 C111.8734,40.4521 114.3774,38.0011 118.9134,38.0011 C122.6724,38.0011 125.1734,39.5151 125.1734,42.1241 C125.1734,44.2651 123.2954,46.5601 120.0104,47.2861 C121.9384,49.2711 123.5064,50.8881 125.2814,53.0261 C126.3204,51.2031 126.6884,50.1591 126.6884,49.1641 C126.6884,48.3831 126.2714,47.9141 125.2814,47.5991 L125.2814,46.5061 L131.5414,46.5061 L131.5414,47.5991 Z M68.5704,88.6081 L67.0604,88.6081 C66.6924,85.8921 65.3354,84.6421 62.7804,84.6421 L57.8774,84.6421 L57.8774,92.8831 C57.8774,95.7021 59.0244,96.6921 62.1034,96.6921 L63.3544,96.6921 C67.1634,96.6921 68.8304,93.8771 69.8744,90.9561 L71.2814,90.9561 L70.7124,98.9371 L47.1814,98.9371 L47.1814,97.5261 C50.6234,96.7951 51.0934,95.7551 51.0934,92.5691 L51.0934,73.7931 C51.0934,71.0771 50.4704,70.1361 47.1814,69.5131 L47.1814,68.1061 L70.3454,68.1061 L70.3454,75.4601 L68.8844,75.4601 C67.8934,71.5471 66.7464,70.3461 63.3004,70.3461 L57.8774,70.3461 L57.8774,82.2931 L62.7804,82.2931 C65.2854,82.2931 66.4324,81.2501 67.0604,78.4351 L68.5704,78.4351 L68.5704,88.6081 Z M118.2864,32.5781 L116.4124,32.5781 L95.0724,8.0021 L95.0724,25.4301 C95.0724,28.8191 96.0634,30.5431 99.6124,31.1171 L99.6124,32.5781 L88.3414,32.5781 L88.3414,31.1171 C91.6304,30.5931 92.4644,28.0391 92.3614,25.0091 L92.3614,5.4981 C90.0134,3.1001 89.5434,2.7331 88.2924,2.4731 L88.2924,1.0661 L97.8914,1.0661 L115.5744,21.3611 L115.5744,8.3711 C115.5744,4.6111 114.9514,3.2041 111.6624,2.4731 L111.6624,1.0661 L122.7754,1.0661 L122.7754,2.4731 C119.2274,2.6831 118.2864,4.7671 118.2864,7.5331 L118.2864,32.5781 Z M176.7174,2.5271 C170.7704,2.5271 167.3294,7.1161 167.3294,16.6121 C167.3294,23.1851 169.8834,30.1231 176.7174,30.1231 C181.7764,30.1231 186.1594,25.6901 186.1594,16.5621 C186.1594,8.4241 183.3944,2.5271 176.7174,2.5271 L176.7174,2.5271 Z M110.2014,98.9371 L108.8974,98.9371 L100.1314,75.9301 L100.0284,75.9301 L91.9944,98.9371 L90.7974,98.9371 L81.1984,73.9491 C79.6304,69.8771 78.9534,69.7191 76.2914,69.5131 L76.2914,68.1061 L89.5434,68.1061 L89.5434,69.5131 C87.1454,69.9791 87.2484,71.2881 87.9794,73.2681 L93.2444,87.6671 L93.3524,87.6671 L98.5144,72.2781 C97.3674,70.4501 97.0034,69.9291 94.4454,69.5131 L94.4454,68.1061 L107.5934,68.1061 L107.5934,69.5131 C105.7154,70.0331 105.2984,70.8711 105.9214,72.5381 L111.5054,87.6131 L111.6124,87.6131 L115.8354,74.9401 C117.0354,71.3901 116.9324,69.8771 114.1674,69.5131 L114.1674,68.1061 L123.7124,68.1061 L123.7124,69.5131 C121.2614,69.7731 119.8544,71.3411 118.2364,76.0341 L110.2014,98.9371 Z M37.1654,98.9371 L35.1804,98.9371 L9.6724,70.3461 L9.6724,91.5251 C9.6724,95.5441 10.8734,96.6921 15.0454,97.3691 L15.0454,98.9371 L1.7944,98.9371 L1.7944,97.3691 C5.6034,96.7461 6.5944,94.7111 6.5944,91.3191 L6.5944,67.5821 C3.7754,64.7131 3.2014,64.2931 1.7404,63.9831 L1.7404,62.3651 L13.0604,62.3651 L34.0864,86.3631 L34.0864,70.9741 C34.0864,66.5421 33.3564,64.8171 29.4984,63.9831 L29.4984,62.3651 L42.4844,62.3651 L42.4844,63.9831 C38.3124,64.2431 37.1654,66.6941 37.1654,69.9791 L37.1654,98.9371 Z M40.8174,38.3141 L39.2004,38.3141 L28.6604,10.1451 L28.5564,10.1451 L19.2714,38.3141 L17.7034,38.3141 L6.3344,8.0561 C4.5054,3.2041 3.6724,2.9441 0.4904,2.6831 L0.4904,1.1201 L16.2464,1.1201 L16.2464,2.6831 C13.8444,2.9981 13.4824,4.8751 14.3694,7.2191 L20.5224,24.0731 L20.6294,24.0731 L26.9394,5.7621 C26.0024,3.9341 24.5414,2.6831 22.0364,2.6831 L22.0364,1.1201 L37.6354,1.1201 L37.6354,2.6831 C35.3904,3.3111 34.8714,4.4051 35.6504,6.3351 L42.2784,24.3331 L42.3814,24.3331 L47.2344,9.7781 C48.6424,5.5511 48.7984,3.3601 45.3574,2.6831 L45.3574,1.1201 L56.7264,1.1201 L56.7264,2.6831 C53.8044,2.9981 52.2944,4.9241 50.4164,10.4551 L40.8174,38.3141 Z M205.0974,7.5861 C205.0974,4.5611 204.4204,3.4141 200.5584,2.6831 L200.5584,1.1201 L217.3574,1.1201 C227.3204,1.1201 231.3394,5.0821 231.3394,10.1451 C231.3394,13.7971 229.2514,17.1851 224.0884,18.6461 L224.0884,18.8021 C229.5654,19.7971 232.4334,31.3771 235.6694,34.6081 C236.6094,35.5491 237.3894,36.1231 238.9044,36.3871 L238.9044,37.9511 L228.7814,37.9511 C224.8734,33.2541 221.7944,24.6461 219.0254,21.8811 C217.4614,20.2631 215.9504,20.2101 212.7694,20.2101 L212.7694,31.3241 C212.7694,34.5591 214.0734,35.8631 217.3574,36.3871 L217.3574,37.9511 L200.5584,37.9511 L200.5584,36.3871 C203.5334,36.1231 205.0974,34.6621 205.0974,31.7451 L205.0974,7.5861 Z M176.7174,32.5241 C166.9614,32.5241 159.9704,25.7931 159.9704,16.3511 C159.9704,6.9101 166.9614,0.1251 176.7174,0.1251 C186.5264,0.1251 193.5714,6.9101 193.5714,16.3511 C193.5714,25.7931 186.5264,32.5241 176.7174,32.5241 L176.7174,32.5241 Z M243.9634,63.5661 L243.9634,62.3121 L243.9634,63.5661 Z" id="Fill-1"></path>
            </g>
            <path d="M157.759,45.7 C158.229,51.177 163.235,54.412 167.564,56.706 C169.289,55.927 172.785,48.779 173.408,46.22 L171.634,45.073 C170.8,47.788 168.868,52.534 167.358,54.255 C164.176,52.902 160.314,49.249 159.063,44.343 L157.759,45.7 Z" id="Path"></path>
            <path d="M158.7,58.378 C159.897,62.55 164.907,66.883 168.819,69.384 C172.471,67.036 177.01,60.515 177.634,58.584 L175.967,57.127 C175.026,59.265 172.574,63.594 168.765,66.516 C168.451,66.305 160.941,61.82 160.107,56.447 L158.7,58.378 Z" id="Path"></path>
            <path d="M191.879,67.82 C197.719,64.325 205.704,58.167 213.842,54.412 C218.534,52.221 220.466,50.97 223.648,51.127 C227.3,51.284 229.805,51.593 231.472,51.284 C233.197,50.97 234.237,50.45 235.491,50.24 C236.639,50.029 237.732,50.706 238.1,51.647 C240.708,50.549 242.742,53.525 242.428,56.603 C240.291,54.205 237.526,54.412 234.967,54.986 C233.301,55.456 231.682,55.25 230.168,54.828 L230.011,55.819 C231.736,56.76 234.291,56.5 236.168,56.24 C239.193,55.819 240.708,58.324 240.658,58.114 C243.527,59.005 243.576,62.55 242.012,64.742 C241.541,62.29 239.09,59.892 235.962,60.305 C234.708,60.466 232.413,60.305 229.962,59.422 L229.751,60.515 C231.423,61.506 233.35,61.82 235.335,61.927 C240.081,62.236 242.325,68.497 240.551,72.306 C240.188,67.923 237.786,67.3 234.344,68.757 C230.065,69.124 229.074,63.908 223.387,63.908 C216.294,63.908 207.008,73.713 192.816,85.973 C190.625,86.081 189.424,86.081 187.913,86.081 C188.537,82.895 188.953,78.62 188.488,75.747 L186.242,75.277 C186.556,79.977 186.189,83.625 185.149,86.027 C182.644,85.924 179.202,85.4 179.202,85.4 L178.781,86.655 C181.34,87.699 185.879,88.322 191.198,88.322 C204.243,88.322 216.343,82.429 221.823,82.429 C223.284,82.429 224.485,82.742 226.206,83.939 C230.011,86.601 230.898,86.704 234.03,87.699 C235.594,88.165 237.109,89.052 237.419,90.15 C241.281,91.243 241.752,96.567 239.664,98.024 C239.56,93.121 237.369,93.278 234.084,92.081 C232.623,91.557 231.212,90.984 229.442,89.263 L228.971,90.459 C229.908,92.184 233.04,93.695 235.021,94.376 C237.055,95.156 237.683,95.053 238.046,97.347 C238.149,97.867 238.1,98.808 238.987,99.955 C240.188,101.523 239.977,105.275 237.055,106.166 C237.055,99.068 232.046,98.494 227.717,94.95 L226.829,96.043 C227.56,97.867 231.055,98.391 233.247,101.156 C235.962,104.808 234.918,109.922 232.099,112.373 C232.83,109.922 232.046,107.47 230.482,106.216 C229.594,106.843 228.971,106.897 227.717,107 C224.902,107.21 224.015,104.755 222.447,102.043 C217.701,93.802 211.597,96.41 201.895,98.965 C192.189,101.523 174.712,106.946 164.647,106.946 C154.577,106.946 152.176,101.367 147.95,99.435 C145.395,98.234 142.003,99.279 139.551,100.009 L139.551,100.22 C143.254,100.323 146.645,102.824 148.577,104.445 C144.718,106.426 138.297,109.451 128.752,109.451 C106.632,109.451 90.983,96.357 73.923,82.115 C66.408,75.801 59.108,69.491 48.308,69.491 C37.979,69.491 32.655,75.227 32.655,81.855 C32.655,87.072 36.41,89.836 39.959,89.836 C40.533,89.836 41.053,89.783 41.577,89.679 L40.793,87.228 C40.533,87.278 40.327,87.278 40.063,87.278 C37.195,87.175 35.37,84.409 35.37,81.699 C35.37,76.845 39.543,72.256 48.308,72.256 C56.343,72.256 62.446,78.669 62.446,87.851 C62.446,98.131 55.559,109.138 38.082,109.138 C22.639,109.138 11.476,96.043 11.476,81.282 C11.476,65.109 23.997,52.485 40.743,52.485 C51.387,52.485 59.368,56.917 59.368,56.917 L59.001,54.466 C59.001,54.466 52.637,51.02 44.759,49.666 C35.474,40.43 32.655,25.772 36.151,17.58 L35.263,17.06 C28.12,25.875 32.552,40.69 41.004,49.406 C36.778,49.509 31.978,50.186 28.846,51.02 C26.812,48.936 19.354,42.259 4.692,41.842 C4.692,41.842 11.476,36.728 19.197,38.086 C19.197,38.086 13.408,31.875 13.668,25.145 C13.668,25.145 20.815,24.311 26.291,29.317 C26.345,27.286 27.282,25.615 27.282,25.615 C24.934,24.782 18.207,21.649 10.379,22.644 C10.379,26.709 11.423,32.242 14.031,35.425 C14.031,35.425 3.441,36.465 3.83693077e-13,44.607 C3.83693077e-13,44.607 14.447,42.779 25.718,52.691 C16.222,57.961 8.187,66.829 8.187,81.488 C8.187,99.852 21.492,113.206 38.185,113.206 C53.628,113.206 66.932,104.288 66.932,86.861 C66.932,83.993 66.565,81.699 65.574,79.713 C78.826,90.459 99.695,113.417 128.752,113.417 C138.718,113.417 145.498,109.868 151.028,106.843 C153.533,109.138 158.176,112.427 166.887,111.015 C177.271,109.348 200.641,101.833 208.048,100.058 C215.46,98.338 217.598,99.068 220.206,103.818 C223.491,109.764 226.52,110.388 229.231,109.451 C230.589,110.284 231.109,112.324 229.702,114.511 C233.56,114.618 235.752,112.373 236.692,108.461 C241.909,106.48 242.325,102.671 240.865,99.489 C244.517,95.003 242.325,89.366 239.041,88.949 C238.884,87.385 237.266,86.081 235.124,85.66 C232.933,85.194 230.432,84.096 228.187,82.219 C226.569,80.914 224.638,80.184 221.98,80.184 C217.598,80.184 210.347,83.469 197.512,85.454 C210.239,74.448 216.711,66.516 222.97,66.516 C225.839,66.516 227.77,67.717 228.918,68.864 C230.849,70.742 233.771,71.682 236.325,70.428 C238.884,69.124 239.924,74.551 239.924,74.551 C243.316,71.992 244.1,67.56 243.106,66.149 C246.605,61.77 245.247,59.108 244.15,57.544 C245.611,50.813 239.61,48.779 238.257,49.093 C237.055,47.632 234.134,48.255 232.623,48.779 C230.952,49.299 229.805,49.299 226.256,49.039 C222.603,48.779 219.579,48.936 211.024,53.211 C202.052,57.701 194.537,63.123 190.522,65.471 L191.879,67.82 Z" id="Path"></path>
            <path d="M166.887,41.474 C169.706,46.014 175.026,49.509 181.34,50.764 C183.531,52.951 186.556,56.289 188.434,60.363 C180.035,60.206 175.182,56.083 171.01,49.926 L169.756,52.274 C172.104,55.819 178.051,61.82 186.973,62.657 C189.581,66.673 190.988,71.212 190.522,75.021 C183.217,72.983 177.32,67.403 174.403,60.726 L172.888,63.123 C178.418,73.246 185.095,76.482 192.449,77.369 C193.964,71.212 192.346,65.055 189.374,62.447 C190.468,62.236 190.885,61.976 191.252,61.873 C189.424,58.221 187.806,53.941 184.732,51.333 C185.615,51.387 185.928,51.387 187.183,51.333 C185.462,46.794 182.487,43.299 179.359,40.95 L177.271,41.264 C179.408,42.832 183.321,46.901 184.311,49.613 C178.888,48.779 171.373,45.75 168.505,40.067 L166.887,41.474 Z" id="Path"></path>
            <path d="M158.7,31.562 C156.558,34.954 154.784,37.352 151.969,39.91 C144.405,35.945 143.464,29.164 145.709,26.919 C146.856,28.066 148.317,29.684 150.298,30.311 C151.395,29.787 152.543,28.33 153.43,26.973 C154.367,33.13 162.819,34.17 168.559,33.856 C171.477,33.7 175.182,33.543 177.06,33.493 C177.741,36.151 179.359,38.656 180.452,40.013 C176.33,40.43 171.01,36.675 168.295,32.606 L166.471,33.596 C169.496,37.876 175.55,43.926 183.947,41.631 C181.653,39.229 180.555,37.352 179.305,33.493 C181.703,33.91 184.051,35.057 185.615,36.621 C189.791,32.762 189.424,27.806 189.061,25.408 C193.497,26.605 198.19,27.546 203.092,24.051 L203.092,23.164 C197.929,24.728 193.444,23.944 189.321,22.953 C196.468,13.511 193.497,11.844 193.497,11.844 L194.277,10.329 C195.945,7.148 192.659,5.373 190.678,5.113 C188.953,4.903 182.697,4.643 180.766,4.589 C178.781,4.589 178.781,4.172 178.051,3.495 C176.07,1.564 173.408,1.044 170.8,1.044 C166,1.044 164.647,2.505 153.587,2.505 C151.549,2.505 147.95,2.191 146.282,2.034 L146.282,2.922 C149.881,4.015 160.784,4.903 168.142,3.388 C172.731,2.505 175.236,4.956 176.173,5.687 C176.697,6.104 177.01,6.31 181.546,6.623 C185.149,6.887 189.948,7.878 191.512,8.398 C193.65,9.128 191.615,11.634 190.728,12.731 C192.556,16.119 189.841,20.452 189.321,21.129 C189.007,19.458 185.879,14.766 179.668,14.766 C174.089,14.766 170.8,18.31 170.8,22.796 C170.8,26.242 173.878,28.797 177.53,28.797 C178.781,28.797 179.879,28.586 180.712,28.38 L180.663,27.86 C180.139,27.909 179.565,27.909 179.565,27.909 C175.863,27.909 173.515,26.032 173.515,23.06 C173.515,19.565 176.746,17.163 180.296,17.163 C185.095,17.163 186.816,18.884 188.277,22.693 C184.732,21.909 181.546,21.649 178.521,24.1 L178.521,24.782 C181.703,23.787 184.938,24.311 188.33,25.198 C187.913,28.33 187.389,31.195 185.355,33.964 C181.756,31.562 180.085,31.248 169.863,31.875 C161.097,32.395 155.671,31.508 153.739,22.953 C152.699,25.198 151.705,26.659 150.195,27.86 C146.126,25.669 144.091,21.075 146.905,17.266 L146.072,16.693 C143.254,18.468 143.204,23.007 144.561,25.302 C140.753,29.841 142.576,33.91 145.185,36.989 C143.567,39.337 141.793,45.7 146.749,50.549 C144.561,54.986 143.047,59.578 147.326,64.481 C147.219,65.629 146.905,66.305 146.699,67.246 C138.718,63.437 134.439,55.769 134.439,49.509 C134.439,38.136 137.15,32.659 137.203,24.517 C137.306,9.025 126.144,-2.13162821e-14 107.259,-2.13162821e-14 C101.989,-2.13162821e-14 87.748,1.511 64.741,1.511 C61.089,1.511 57.907,1.461 55.402,1.304 L55.402,1.564 C58.427,2.922 65.471,3.132 74.81,3.132 C90.41,3.132 101.313,2.137 106.161,2.137 C123.222,2.137 134.649,9.702 134.649,25.302 C134.649,30.675 131.987,40.013 131.987,47.578 C131.987,56.603 136.11,65.212 146.282,69.541 C144.871,74.865 142.473,77.055 139.865,78.203 L140.488,79.4 C149.778,79.556 161.255,74.183 162.662,61.77 L161.358,60.206 C158.853,70.742 153.793,75.021 144.871,76.742 C147.429,73.87 148.16,71.786 149.307,66.412 C157.966,64.325 161.461,55.613 162.295,52.588 L161.097,50.549 C159.583,55.769 155.308,62.447 149.254,64.114 C146.489,60.515 146.749,55.662 148.366,52.221 C149.151,52.951 150.298,53.995 151.288,54.466 C156.455,51.387 159.794,44.867 161.151,40.381 L159.636,39.18 C157.549,45.7 155.048,49.455 151.395,52.014 C147.636,49.666 143.204,44.607 146.542,38.553 C147.636,39.91 149.778,41.371 151.969,42.465 C155.357,40.17 158.489,35.841 160.524,32.346 L158.7,31.562 Z" id="Path"></path>
            <path d="M169.863,36.101 C168.716,38.97 166.108,40.95 164.28,42.572 C160.314,40.537 158.333,36.675 158.176,34.43 L156.612,36.361 C157.446,38.499 158.853,41.945 164.436,45.127 C167.304,43.092 169.392,40.274 171.324,37.145 L169.863,36.101 Z" id="Path"></path>
            <path d="M177.113,66.516 C175.393,72.983 173.251,75.904 169.496,79.09 C163.706,77.105 161.514,74.811 158.386,70.271 L157.029,72.046 C158.333,76.325 165.637,81.802 170.069,81.958 C173.094,79.713 177.687,74.497 179.148,68.81 L177.113,66.516 Z" id="Path"></path>
            <path d="M149.464,15.702 C148.994,14.452 149.204,11.844 149.204,11.844 L148.994,11.79 C143.254,9.496 141.9,4.123 141.9,2.505 L141.012,2.505 C140.909,3.132 140.856,3.702 140.856,4.275 C140.856,12.364 149.464,15.702 149.464,15.702 L149.464,15.702 Z" id="Path"></path>
            <path d="M160.314,9.075 C164.069,8.452 166.471,8.245 168.295,8.452 C167.985,9.599 166.887,10.123 165.323,10.432 L165.897,11.53 C168.559,11.476 169.863,10.486 170.697,9.075 C171.217,9.285 171.687,9.545 172.211,9.859 C172.471,10.016 172.731,9.809 172.888,9.599 C173.148,9.285 173.148,9.075 172.937,8.815 C170.593,6.887 168.662,6.623 164.853,7.094 C161.255,7.511 158.592,7.721 158.592,7.721 C158.592,7.721 158.176,7.878 160.314,9.075 L160.314,9.075 Z" id="Path"></path>
            <path d="M142.837,82.429 C125.987,84.983 100.685,89.209 87.067,82.635 L86.91,82.895 C91.033,87.645 98.024,89.003 105.014,89.003 C116.491,89.003 134.022,86.341 142.993,83.625 L142.837,82.429 Z" id="Path"></path>
            <path d="M136.993,72.516 C129.85,74.968 105.171,76.949 95.259,76.949 C86.39,76.949 76.742,75.698 73.349,69.541 L73.506,69.281 C86.233,75.698 115.398,73.556 126.301,72.57 C128.545,72.359 131.777,71.682 131.777,71.682 L131.517,68.134 C131.517,68.134 132.874,71.732 136.993,72.256 L136.993,72.516 Z" id="Path"></path>
            <path d="M64.53,55.25 C75.591,65.162 104.544,60.932 116.231,60.932 C118.422,60.932 122.074,60.466 125.256,60.152 L125.673,56.657 C125.673,56.657 126.56,60.775 130.943,61.192 L130.997,61.403 C120.717,63.123 98.234,64.952 85.032,64.952 C76.948,64.952 68.496,63.491 64.374,55.506 L64.53,55.25 Z" id="Path"></path>
            <path d="M46.48,14.345 C60.098,28.12 89.312,24.468 101.572,24.468 C103.71,24.468 108.77,24.208 112.319,24.051 L113.206,20.139 C113.206,20.139 114.093,24.1 118.682,25.252 L118.682,25.458 C112.892,26.135 82.688,26.552 73.399,26.552 C63.957,26.552 49.558,25.875 46.323,14.609 L46.48,14.345 Z" id="Path"></path>
            <path d="M54.358,40.847 C66.879,53.368 95.676,48.985 108.77,48.985 C111.902,48.985 118.422,48.465 118.266,48.465 L118.946,44.916 C118.946,44.916 119.883,49.093 124.526,49.716 L124.579,49.926 C117.015,50.813 88.008,52.117 77.625,52.117 C68.443,52.117 56.966,50.97 54.201,41.161 L54.358,40.847 Z" id="Path"></path>
            <path d="M43.665,1.564 C57.28,14.869 86.287,11.32 100.112,11.32 C102.823,11.32 106.946,11.011 111.015,10.796 L111.795,6.834 C111.795,6.834 112.633,11.06 117.275,11.947 L117.275,12.153 C111.535,12.834 83.105,13.825 70.741,13.825 C61.245,13.825 46.69,13.148 43.509,1.878 L43.665,1.564 Z" id="Path"></path>
            <path d="M49.819,27.86 C62.809,40.587 93.327,36.518 104.494,36.518 C107.259,36.518 112.946,36.101 115.03,35.945 L115.501,32.086 C115.501,32.086 116.701,36.621 121.394,37.195 L121.447,37.406 C114.981,38.086 86.964,39.65 74.967,39.65 C65.628,39.65 52.691,38.813 49.661,28.174 L49.819,27.86 Z" id="Path"></path>
            <polygon id="Path-2" points="157.914338 31.7307424 158.283534 32.918156 159.480926 33.3073084 160.897839 32.8383299 161.137318 32.0999382 158.612816 31.002329"></polygon>
            <polygon id="Path-3" points="166.106494 33.5966781 167.323843 34.2253089 169.139887 34.1355045 169.299539 33.2973301 168.381539 32.2096992"></polygon>
        </g>
    </g>
</svg>